<?xml version="1.0" encoding="UTF-8" standalone="no"?>
<!DOCTYPE svg PUBLIC "-//W3C//DTD SVG 1.1//EN"
 "http://www.w3.org/Graphics/SVG/1.1/DTD/svg11.dtd">
<!-- Generated by graphviz version 2.40.1 (20161225.0304)
 -->
<!-- Title: dependencies Pages: 1 -->
<svg width="995pt" height="284pt"
 viewBox="0.00 0.00 995.00 284.00" xmlns="http://www.w3.org/2000/svg" xmlns:xlink="http://www.w3.org/1999/xlink">
<g id="graph0" class="graph" transform="scale(1 1) rotate(0) translate(4 280)">
<title>dependencies</title>
<polygon fill="#ffffff" stroke="transparent" points="-4,4 -4,-280 991,-280 991,4 -4,4"/>
<text text-anchor="start" x="472.5091" y="-42.4" font-family="sans-serif" font-weight="bold" font-size="14.00" fill="#000000">Legend</text>
<polygon fill="#ffffb3" stroke="transparent" points="259.5,-10 259.5,-30 279.5,-30 279.5,-10 259.5,-10"/>
<text text-anchor="start" x="283.129" y="-15.4" font-family="sans-serif" font-size="14.00" fill="#000000"> &#160;Declarations</text>
<polygon fill="#8dd3c7" stroke="transparent" points="372.5,-10 372.5,-30 392.5,-30 392.5,-10 372.5,-10"/>
<text text-anchor="start" x="396.2251" y="-15.4" font-family="sans-serif" font-size="14.00" fill="#000000"> &#160;Module</text>
<polygon fill="#80b1d3" stroke="transparent" points="458.5,-10 458.5,-30 478.5,-30 478.5,-10 458.5,-10"/>
<text text-anchor="start" x="482.2812" y="-15.4" font-family="sans-serif" font-size="14.00" fill="#000000"> &#160;Bootstrap</text>
<polygon fill="#fdb462" stroke="transparent" points="555.5,-10 555.5,-30 575.5,-30 575.5,-10 555.5,-10"/>
<text text-anchor="start" x="579.1732" y="-15.4" font-family="sans-serif" font-size="14.00" fill="#000000"> &#160;Providers</text>
<polygon fill="#fb8072" stroke="transparent" points="651.5,-10 651.5,-30 671.5,-30 671.5,-10 651.5,-10"/>
<text text-anchor="start" x="675.2258" y="-15.4" font-family="sans-serif" font-size="14.00" fill="#000000"> &#160;Exports</text>
<g id="clust1" class="cluster">
<title>cluster_AppModule</title>
<polygon fill="none" stroke="#000000" stroke-dasharray="1,5" points="8,-70 8,-268 979,-268 979,-70 8,-70"/>
</g>
<g id="clust2" class="cluster">
<title>cluster_AppModule_declarations</title>
<polygon fill="none" stroke="#000000" points="418,-78 418,-130 971,-130 971,-78 418,-78"/>
</g>
<g id="clust9" class="cluster">
<title>cluster_AppModule_bootstrap</title>
<polygon fill="none" stroke="#000000" points="432,-208 432,-260 556,-260 556,-208 432,-208"/>
</g>
<g id="clust10" class="cluster">
<title>cluster_AppModule_providers</title>
<polygon fill="none" stroke="#000000" points="16,-78 16,-130 410,-130 410,-78 16,-78"/>
</g>
<!-- AppComponent -->
<g id="node1" class="node">
<title>AppComponent</title>
<polygon fill="#ffffb3" stroke="#000000" points="962.9399,-122 857.0601,-122 857.0601,-86 962.9399,-86 962.9399,-122"/>
<text text-anchor="middle" x="910" y="-99.8" font-family="Times,serif" font-size="14.00" fill="#000000">AppComponent</text>
</g>
<!-- AppModule -->
<g id="node5" class="node">
<title>AppModule</title>
<polygon fill="#8dd3c7" stroke="#000000" points="535.6571,-187 532.6571,-191 511.6571,-191 508.6571,-187 452.3429,-187 452.3429,-151 535.6571,-151 535.6571,-187"/>
<text text-anchor="middle" x="494" y="-164.8" font-family="Times,serif" font-size="14.00" fill="#000000">AppModule</text>
</g>
<!-- AppComponent&#45;&gt;AppModule -->
<g id="edge1" class="edge">
<title>AppComponent&#45;&gt;AppModule</title>
<path fill="none" stroke="#000000" d="M910,-122.2921C910,-144.2057 910,-178 910,-178 910,-178 545.7924,-178 545.7924,-178"/>
<polygon fill="#000000" stroke="#000000" points="545.7924,-174.5001 535.7924,-178 545.7923,-181.5001 545.7924,-174.5001"/>
</g>
<!-- LoginComponent -->
<g id="node2" class="node">
<title>LoginComponent</title>
<polygon fill="#ffffb3" stroke="#000000" points="839.2758,-122 724.7242,-122 724.7242,-86 839.2758,-86 839.2758,-122"/>
<text text-anchor="middle" x="782" y="-99.8" font-family="Times,serif" font-size="14.00" fill="#000000">LoginComponent</text>
</g>
<!-- LoginComponent&#45;&gt;AppModule -->
<g id="edge2" class="edge">
<title>LoginComponent&#45;&gt;AppModule</title>
<path fill="none" stroke="#000000" d="M782,-122.1061C782,-141.3391 782,-169 782,-169 782,-169 545.8777,-169 545.8777,-169"/>
<polygon fill="#000000" stroke="#000000" points="545.8777,-165.5001 535.8777,-169 545.8776,-172.5001 545.8777,-165.5001"/>
</g>
<!-- RegisterComponent -->
<g id="node3" class="node">
<title>RegisterComponent</title>
<polygon fill="#ffffb3" stroke="#000000" points="706.9846,-122 579.0154,-122 579.0154,-86 706.9846,-86 706.9846,-122"/>
<text text-anchor="middle" x="643" y="-99.8" font-family="Times,serif" font-size="14.00" fill="#000000">RegisterComponent</text>
</g>
<!-- RegisterComponent&#45;&gt;AppModule -->
<g id="edge3" class="edge">
<title>RegisterComponent&#45;&gt;AppModule</title>
<path fill="none" stroke="#000000" d="M643,-122.027C643,-138.3976 643,-160 643,-160 643,-160 545.9013,-160 545.9013,-160"/>
<polygon fill="#000000" stroke="#000000" points="545.9014,-156.5001 535.9013,-160 545.9013,-163.5001 545.9014,-156.5001"/>
</g>
<!-- SongitemComponent -->
<g id="node4" class="node">
<title>SongitemComponent</title>
<polygon fill="#ffffb3" stroke="#000000" points="561.5014,-122 426.4986,-122 426.4986,-86 561.5014,-86 561.5014,-122"/>
<text text-anchor="middle" x="494" y="-99.8" font-family="Times,serif" font-size="14.00" fill="#000000">SongitemComponent</text>
</g>
<!-- SongitemComponent&#45;&gt;AppModule -->
<g id="edge4" class="edge">
<title>SongitemComponent&#45;&gt;AppModule</title>
<path fill="none" stroke="#000000" d="M494,-122.1061C494,-122.1061 494,-140.991 494,-140.991"/>
<polygon fill="#000000" stroke="#000000" points="490.5001,-140.9909 494,-150.991 497.5001,-140.991 490.5001,-140.9909"/>
</g>
<!-- AppComponent  -->
<g id="node6" class="node">
<title>AppComponent </title>
<polygon fill="#80b1d3" stroke="#000000" points="548.439,-252 439.561,-252 439.561,-216 548.439,-216 548.439,-252"/>
<text text-anchor="middle" x="494" y="-229.8" font-family="Times,serif" font-size="14.00" fill="#000000">AppComponent </text>
</g>
<!-- AppModule&#45;&gt;AppComponent  -->
<g id="edge5" class="edge">
<title>AppModule&#45;&gt;AppComponent </title>
<path fill="none" stroke="#000000" stroke-dasharray="1,5" d="M494,-187.1061C494,-187.1061 494,-205.991 494,-205.991"/>
<polygon fill="#000000" stroke="#000000" points="490.5001,-205.9909 494,-215.991 497.5001,-205.991 490.5001,-205.9909"/>
</g>
<!-- SongService -->
<g id="node7" class="node">
<title>SongService</title>
<ellipse fill="#fdb462" stroke="#000000" cx="342" cy="-104" rx="59.6916" ry="18"/>
<text text-anchor="middle" x="342" y="-99.8" font-family="Times,serif" font-size="14.00" fill="#000000">SongService</text>
</g>
<!-- SongService&#45;&gt;AppModule -->
<g id="edge6" class="edge">
<title>SongService&#45;&gt;AppModule</title>
<path fill="none" stroke="#000000" d="M342,-122.027C342,-138.3976 342,-160 342,-160 342,-160 442.063,-160 442.063,-160"/>
<polygon fill="#000000" stroke="#000000" points="442.063,-163.5001 452.063,-160 442.0629,-156.5001 442.063,-163.5001"/>
</g>
<!-- UrlService -->
<g id="node8" class="node">
<title>UrlService</title>
<ellipse fill="#fdb462" stroke="#000000" cx="211" cy="-104" rx="52.7238" ry="18"/>
<text text-anchor="middle" x="211" y="-99.8" font-family="Times,serif" font-size="14.00" fill="#000000">UrlService</text>
</g>
<!-- UrlService&#45;&gt;AppModule -->
<g id="edge7" class="edge">
<title>UrlService&#45;&gt;AppModule</title>
<path fill="none" stroke="#000000" d="M211,-122.1061C211,-141.3391 211,-169 211,-169 211,-169 442.2424,-169 442.2424,-169"/>
<polygon fill="#000000" stroke="#000000" points="442.2424,-172.5001 452.2424,-169 442.2423,-165.5001 442.2424,-172.5001"/>
</g>
<!-- UserService -->
<g id="node9" class="node">
<title>UserService</title>
<ellipse fill="#fdb462" stroke="#000000" cx="82" cy="-104" rx="58.4415" ry="18"/>
<text text-anchor="middle" x="82" y="-99.8" font-family="Times,serif" font-size="14.00" fill="#000000">UserService</text>
</g>
<!-- UserService&#45;&gt;AppModule -->
<g id="edge8" class="edge">
<title>UserService&#45;&gt;AppModule</title>
<path fill="none" stroke="#000000" d="M82,-122.2921C82,-144.2057 82,-178 82,-178 82,-178 442.2279,-178 442.2279,-178"/>
<polygon fill="#000000" stroke="#000000" points="442.228,-181.5001 452.2279,-178 442.2279,-174.5001 442.228,-181.5001"/>
</g>
</g>
</svg>
